<?xml version="1.0" standalone="no"?>
<!DOCTYPE svg PUBLIC "-//W3C//DTD SVG 20010904//EN"
 "http://www.w3.org/TR/2001/REC-SVG-20010904/DTD/svg10.dtd">
<svg version="1.0" xmlns="http://www.w3.org/2000/svg"
 width="864.000000pt" height="864.000000pt" viewBox="0 0 864.000000 864.000000"
 preserveAspectRatio="xMidYMid meet">
<metadata>
Created by potrace 1.14, written by Peter Selinger 2001-2017
</metadata>
<g transform="translate(0.000000,864.000000) scale(0.100000,-0.100000)"
fill="#000000" stroke="none">
<path d="M585 8536 c-85 -32 -114 -52 -163 -110 -43 -51 -79 -130 -87 -194 -8
-59 -20 -119 -25 -124 -6 -8 -18 -105 -25 -203 -3 -38 -7 -86 -9 -105 -3 -19
-7 -69 -11 -110 -3 -41 -8 -97 -10 -125 -14 -166 -20 -231 -30 -352 -2 -32 -7
-94 -11 -138 -8 -107 -11 -144 -19 -250 -3 -49 -8 -110 -10 -134 -3 -25 -7
-88 -11 -140 -3 -53 -7 -118 -9 -146 -2 -27 -6 -88 -9 -135 -3 -47 -8 -121
-11 -165 -3 -44 -8 -114 -10 -155 -3 -41 -7 -106 -9 -145 -3 -38 -8 -124 -11
-190 -4 -66 -8 -145 -10 -175 -9 -156 -17 -303 -20 -375 -3 -72 -6 -142 -20
-430 -2 -49 -7 -162 -10 -250 -3 -88 -8 -203 -10 -255 -8 -189 -18 -548 -19
-667 -1 -68 -3 -123 -6 -123 -13 0 -21 -2583 -8 -2668 16 -104 121 -246 210
-285 110 -49 89 -46 558 -62 63 -2 176 -6 250 -9 74 -3 205 -8 290 -10 85 -3
218 -8 295 -12 77 -3 188 -7 247 -8 59 -1 110 -5 114 -8 3 -4 14 -3 24 2 10 5
20 7 23 4 2 -3 60 -7 128 -9 165 -6 416 -15 564 -21 132 -5 368 -13 545 -18
123 -4 370 -13 565 -21 117 -5 279 -11 535 -20 69 -2 193 -7 275 -10 83 -3
213 -8 290 -10 77 -3 205 -8 285 -11 145 -5 195 -7 515 -18 94 -3 231 -8 305
-11 74 -3 191 -8 260 -10 121 -4 287 -10 550 -20 69 -3 195 -7 280 -10 85 -3
214 -8 285 -11 268 -12 501 -10 518 5 10 7 17 11 17 7 0 -21 167 99 176 126 3
10 9 18 14 18 27 0 63 133 95 345 2 17 7 48 10 70 4 22 8 56 11 75 2 19 7 42
9 50 3 8 7 35 10 60 8 69 21 156 30 210 9 50 16 100 30 210 2 14 4 25 5 25 1
0 3 14 4 30 4 43 17 142 22 168 2 12 9 60 14 107 6 47 13 101 16 120 3 19 7
58 9 85 2 28 6 65 10 84 6 34 9 58 20 171 3 30 8 71 11 90 6 36 11 88 19 175
2 28 5 50 6 50 0 0 2 14 4 30 7 81 16 174 20 205 2 19 6 71 10 115 3 44 8 94
11 110 2 17 6 59 9 95 6 81 13 179 20 250 14 161 17 202 19 272 0 43 3 78 6
78 3 0 5 21 6 48 0 26 4 88 7 137 4 50 9 137 12 195 4 58 8 139 11 180 10 170
19 380 31 770 15 463 7 2020 -10 2037 -3 3 -2 16 3 29 5 13 6 24 2 24 -4 0 -7
37 -8 83 -1 45 -4 138 -8 207 -4 69 -8 163 -11 210 -15 322 -20 377 -41 439
-58 174 -186 259 -432 286 -26 3 -60 7 -77 9 -27 4 -127 15 -195 22 -14 1 -25
3 -25 4 0 0 -22 3 -50 5 -27 2 -68 6 -90 8 -59 8 -174 20 -220 23 -22 1 -40 3
-40 4 0 2 -18 4 -130 14 -106 10 -184 18 -309 31 -22 2 -71 7 -110 10 -118 9
-190 16 -216 21 -14 2 -68 7 -120 9 -52 3 -107 8 -121 10 -15 3 -62 7 -105 10
-85 5 -187 14 -244 19 -19 3 -75 7 -125 10 -49 4 -110 9 -135 11 -25 2 -90 7
-145 11 -55 3 -116 7 -135 9 -19 1 -80 5 -135 9 -55 3 -127 9 -160 11 -56 5
-132 10 -315 20 -136 7 -264 15 -350 21 -47 3 -128 7 -180 10 -52 2 -138 6
-190 8 -197 10 -538 25 -685 31 -390 14 -505 18 -612 19 -68 0 -123 4 -123 8
0 4 -11 3 -24 -2 -13 -5 -26 -6 -29 -4 -9 9 -323 14 -1227 19 l-855 4 -60 -23z
m620 -776 c14 5 27 5 30 1 3 -5 21 -5 40 -1 19 4 35 5 35 1 0 -3 181 -6 403
-7 516 -2 1063 -12 1482 -30 115 -4 129 -5 158 -3 23 1 616 -25 847 -37 58 -3
143 -7 190 -9 142 -7 347 -19 535 -31 50 -3 119 -7 155 -9 36 -2 100 -6 143
-10 42 -3 112 -8 155 -10 42 -3 109 -7 147 -10 39 -3 102 -7 140 -10 107 -7
203 -14 275 -20 149 -13 178 -15 245 -20 39 -2 88 -7 110 -9 22 -3 76 -8 120
-12 44 -3 103 -8 130 -10 28 -3 73 -6 100 -8 48 -4 123 -11 229 -22 28 -3 75
-7 105 -9 31 -2 81 -7 111 -10 30 -3 75 -8 100 -10 25 -3 68 -7 95 -10 28 -3
71 -8 98 -10 102 -10 144 -15 197 -21 71 -7 138 -14 172 -17 15 -1 32 -7 37
-12 6 -6 13 -76 16 -155 3 -80 8 -185 10 -235 9 -191 17 -510 19 -741 2 -133
6 -246 10 -253 4 -6 3 -11 -1 -11 -10 0 -9 -58 0 -67 3 -3 2 -16 -3 -29 -6
-14 -6 -26 0 -29 6 -4 7 -13 1 -24 -6 -10 -6 -23 -1 -31 5 -8 5 -20 1 -28 -4
-8 -5 -32 -1 -53 4 -21 5 -39 1 -39 -3 0 -6 -13 -6 -30 0 -16 2 -30 5 -30 3 0
5 -13 5 -30 0 -16 -3 -30 -7 -30 -4 0 -4 -10 1 -22 4 -13 5 -35 1 -50 -5 -14
-6 -29 -2 -32 7 -8 9 -56 2 -56 -3 0 -6 -98 -6 -218 -1 -203 -9 -498 -20 -742
-2 -58 -6 -157 -9 -220 -3 -63 -7 -151 -9 -195 -3 -44 -8 -127 -11 -185 -5
-98 -9 -159 -20 -305 -2 -33 -7 -98 -10 -145 -4 -47 -8 -110 -11 -140 -2 -30
-6 -86 -9 -125 -2 -38 -7 -88 -9 -110 -9 -75 -20 -200 -20 -237 -1 -21 -3 -38
-6 -38 -3 0 -5 -19 -6 -43 0 -23 -4 -73 -8 -112 -4 -38 -9 -86 -11 -105 -13
-134 -24 -233 -30 -282 -3 -24 -8 -68 -11 -98 -3 -30 -7 -66 -10 -80 -2 -14
-7 -50 -10 -80 -3 -30 -8 -68 -10 -85 -2 -16 -6 -50 -9 -75 -3 -25 -7 -58 -9
-75 -3 -16 -8 -52 -11 -80 -4 -27 -9 -61 -11 -75 -2 -14 -6 -50 -10 -80 -3
-30 -8 -64 -10 -75 -3 -11 -7 -40 -10 -65 -3 -25 -7 -52 -9 -60 -2 -8 -7 -42
-10 -75 -4 -33 -8 -67 -10 -75 -2 -8 -7 -35 -10 -60 -3 -25 -8 -54 -10 -65 -1
-11 -6 -43 -10 -72 -4 -28 -12 -54 -19 -56 -11 -4 -25 -4 -311 8 -171 6 -298
11 -565 20 -174 6 -386 13 -547 20 -65 2 -199 7 -298 11 -99 4 -228 7 -287 8
-60 1 -108 3 -108 6 0 3 -48 6 -108 6 -59 1 -186 5 -282 8 -96 4 -233 9 -305
11 -71 3 -193 7 -270 10 -77 3 -198 7 -270 10 -333 11 -1128 40 -1380 50 -71
3 -200 8 -285 11 -85 3 -204 7 -265 10 -60 2 -114 5 -120 5 -5 0 -19 0 -30 -1
-11 -1 -72 1 -135 4 -159 8 -521 21 -808 30 -74 3 -136 7 -139 10 -3 3 -14 1
-24 -4 -10 -6 -20 -7 -23 -2 -2 4 -24 7 -48 6 l-44 -1 -2 156 c-1 86 -2 161
-2 166 0 6 1 38 2 73 2 34 -1 62 -5 62 -5 0 -5 5 -1 12 10 16 12 58 3 64 -4 2
-4 18 1 34 5 18 5 32 -1 36 -5 3 -6 11 -2 17 10 17 10 70 -1 84 -5 8 -5 13 1
13 10 0 8 60 -2 88 -2 6 -1 12 3 12 4 0 8 161 8 358 1 335 9 804 19 1182 12
428 23 736 30 890 3 52 7 160 10 240 6 164 14 324 19 420 3 36 7 128 11 205 3
77 8 169 10 205 3 36 7 110 10 165 3 55 7 129 10 165 2 36 7 110 10 165 16
260 21 348 29 455 3 41 8 107 11 145 2 39 7 106 11 150 3 44 7 105 9 135 2 30
4 55 5 55 1 0 3 29 5 65 4 81 14 199 21 265 4 47 9 101 18 235 3 30 7 82 11
115 3 33 8 88 10 123 3 35 7 68 11 73 3 5 23 9 45 7 21 -1 42 2 46 6 4 4 9 3
11 -3 2 -6 12 -7 27 -1z"/>
<path d="M4200 7009 c-19 -4 -51 -11 -70 -14 -20 -3 -45 -7 -55 -9 -26 -5
-135 -44 -157 -57 -10 -5 -25 -9 -33 -9 -8 0 -15 -3 -15 -8 0 -4 -17 -16 -37
-27 -21 -11 -66 -48 -100 -82 -89 -88 -123 -145 -170 -283 -9 -25 -15 -92 -15
-160 0 -129 75 -298 173 -386 17 -16 42 -39 55 -52 13 -13 24 -19 24 -15 0 4
4 3 8 -3 9 -13 108 -68 142 -78 170 -50 294 -54 455 -17 50 12 128 28 175 37
205 37 359 129 420 250 8 16 20 36 26 44 13 15 24 54 49 170 2 8 4 15 5 15 5
0 11 73 12 145 1 103 -24 190 -81 277 -70 105 -142 162 -268 212 -76 30 -96
33 -224 35 -63 2 -121 6 -128 10 -19 12 -151 15 -191 5z"/>
<path d="M2150 4787 c-62 -8 -150 -48 -183 -81 -34 -35 -77 -85 -77 -90 0 -3
-5 -17 -11 -33 -6 -15 -9 -28 -8 -28 1 0 -3 -10 -9 -21 -36 -68 -27 -235 18
-325 37 -71 96 -134 156 -166 96 -50 90 -49 579 -58 176 -3 430 -8 565 -10
135 -3 349 -8 475 -10 127 -3 247 -6 268 -8 20 -1 37 1 37 6 0 4 5 5 10 2 10
-6 97 -9 705 -20 154 -2 397 -7 540 -11 143 -3 366 -7 495 -9 129 -2 235 -4
235 -5 0 -1 79 -2 175 -3 221 -3 276 12 368 97 153 142 156 426 6 586 -26 27
-53 50 -60 50 -8 0 -14 4 -14 9 0 5 -8 11 -17 14 -10 3 -38 13 -63 22 -48 18
-78 20 -595 30 -297 6 -503 10 -1035 21 -168 3 -362 7 -432 8 -70 1 -130 4
-134 8 -3 4 -14 4 -23 -1 -9 -4 -34 -7 -56 -5 -35 3 -74 4 -135 4 -8 0 -112 2
-230 4 -211 5 -483 10 -1050 22 -157 3 -321 7 -365 7 -44 1 -105 -1 -135 -6z"/>
<path d="M2145 2921 c-3 -2 -13 -5 -23 -6 -51 -6 -120 -43 -169 -92 -94 -95
-136 -252 -102 -387 6 -23 11 -47 11 -53 1 -7 5 -13 10 -13 5 0 7 -4 4 -9 -8
-12 52 -102 93 -139 35 -31 107 -70 143 -77 10 -2 23 -7 28 -10 11 -7 312 -18
373 -14 11 1 300 -5 792 -16 127 -3 358 -8 515 -11 157 -2 384 -7 505 -9 121
-3 353 -7 515 -10 162 -3 385 -7 495 -10 110 -2 373 -7 585 -10 406 -6 413 -5
501 40 46 24 113 96 139 149 61 127 61 265 0 391 -50 105 -129 170 -240 198
-54 14 -94 16 -466 22 -100 1 -187 5 -192 9 -6 3 -13 2 -17 -4 -4 -6 -11 -8
-16 -4 -5 3 -127 7 -272 10 -144 2 -370 7 -502 9 -132 3 -352 7 -490 10 -137
2 -367 7 -510 10 -143 3 -388 8 -545 10 -157 3 -388 8 -515 10 -446 9 -646 11
-650 6z"/>
</g>
</svg>
